<mxfile host="65bd71144e" modified="2021-01-08T11:33:35.888Z" agent="5.0 (Windows NT 10.0; Win64; x64) AppleWebKit/537.36 (KHTML, like Gecko) Code/1.52.1 Chrome/83.0.4103.122 Electron/9.3.5 Safari/537.36" etag="G4pustQ7iQrmGWoIybr8" version="13.10.0" type="embed">
    <diagram id="knWhzORvT54u3pwO4X9t" name="Pagina-1">
        <mxGraphModel dx="541" dy="691" grid="1" gridSize="10" guides="1" tooltips="1" connect="1" arrows="1" fold="1" page="1" pageScale="1" pageWidth="827" pageHeight="1169" math="0" shadow="0">
            <root>
                <mxCell id="0"/>
                <mxCell id="1" parent="0"/>
                <mxCell id="bDR8WUU64CvsV6LXLhUq-12" value="" style="html=1;align=center;" parent="1" vertex="1">
                    <mxGeometry x="280" y="160" width="240" height="360" as="geometry"/>
                </mxCell>
                <mxCell id="bDR8WUU64CvsV6LXLhUq-1" value="" style="fontStyle=1;align=center;verticalAlign=top;childLayout=stackLayout;horizontal=1;horizontalStack=0;resizeParent=1;resizeParentMax=0;resizeLast=0;marginBottom=0;" parent="1" vertex="1">
                    <mxGeometry x="280" y="120" width="240" height="40" as="geometry"/>
                </mxCell>
                <mxCell id="bDR8WUU64CvsV6LXLhUq-2" value="&amp;lt;&amp;lt;component&amp;gt;&amp;gt;&lt;br&gt;&lt;b&gt;Admin Services&lt;/b&gt;" style="html=1;align=center;spacingLeft=4;verticalAlign=top;strokeColor=none;fillColor=none;" parent="bDR8WUU64CvsV6LXLhUq-1" vertex="1">
                    <mxGeometry width="240" height="40" as="geometry"/>
                </mxCell>
                <mxCell id="bDR8WUU64CvsV6LXLhUq-3" value="" style="shape=module;jettyWidth=8;jettyHeight=4;fillColor=#99FF99;" parent="bDR8WUU64CvsV6LXLhUq-2" vertex="1">
                    <mxGeometry x="1" width="20" height="20" relative="1" as="geometry">
                        <mxPoint x="-28" y="9" as="offset"/>
                    </mxGeometry>
                </mxCell>
                <mxCell id="14" style="edgeStyle=orthogonalEdgeStyle;rounded=0;orthogonalLoop=1;jettySize=auto;html=1;exitX=0;exitY=0.5;exitDx=0;exitDy=0;entryX=1;entryY=0.5;entryDx=0;entryDy=0;" edge="1" parent="1" source="bDR8WUU64CvsV6LXLhUq-10" target="GpY1cq3hWmhObwcl4_N0-4">
                    <mxGeometry relative="1" as="geometry">
                        <Array as="points">
                            <mxPoint x="250" y="381"/>
                            <mxPoint x="250" y="320"/>
                        </Array>
                    </mxGeometry>
                </mxCell>
                <mxCell id="17" style="edgeStyle=orthogonalEdgeStyle;rounded=0;orthogonalLoop=1;jettySize=auto;html=1;exitX=1;exitY=0.5;exitDx=0;exitDy=0;entryX=1;entryY=0.5;entryDx=0;entryDy=0;entryPerimeter=0;" edge="1" parent="1" source="bDR8WUU64CvsV6LXLhUq-10" target="bDR8WUU64CvsV6LXLhUq-51">
                    <mxGeometry relative="1" as="geometry">
                        <Array as="points">
                            <mxPoint x="560" y="381"/>
                            <mxPoint x="560" y="435"/>
                        </Array>
                    </mxGeometry>
                </mxCell>
                <mxCell id="bDR8WUU64CvsV6LXLhUq-10" value="Store List&lt;br&gt;Manager" style="html=1;dropTarget=0;" parent="1" vertex="1">
                    <mxGeometry x="340" y="354.42" width="120" height="52.21" as="geometry"/>
                </mxCell>
                <mxCell id="bDR8WUU64CvsV6LXLhUq-11" value="" style="shape=module;jettyWidth=8;jettyHeight=4;fillColor=#99FF99;" parent="bDR8WUU64CvsV6LXLhUq-10" vertex="1">
                    <mxGeometry x="1" width="20" height="20" relative="1" as="geometry">
                        <mxPoint x="-27" y="7" as="offset"/>
                    </mxGeometry>
                </mxCell>
                <mxCell id="12" style="edgeStyle=orthogonalEdgeStyle;rounded=0;orthogonalLoop=1;jettySize=auto;html=1;exitX=0;exitY=0.5;exitDx=0;exitDy=0;entryX=1;entryY=0.5;entryDx=0;entryDy=0;" edge="1" parent="1" source="bDR8WUU64CvsV6LXLhUq-15" target="GpY1cq3hWmhObwcl4_N0-4">
                    <mxGeometry relative="1" as="geometry">
                        <Array as="points">
                            <mxPoint x="250" y="217"/>
                            <mxPoint x="250" y="320"/>
                        </Array>
                    </mxGeometry>
                </mxCell>
                <mxCell id="20" style="edgeStyle=orthogonalEdgeStyle;rounded=0;orthogonalLoop=1;jettySize=auto;html=1;exitX=1;exitY=0.5;exitDx=0;exitDy=0;entryX=1;entryY=0.5;entryDx=0;entryDy=0;entryPerimeter=0;" edge="1" parent="1" source="bDR8WUU64CvsV6LXLhUq-15" target="bDR8WUU64CvsV6LXLhUq-51">
                    <mxGeometry relative="1" as="geometry">
                        <Array as="points">
                            <mxPoint x="560" y="217"/>
                            <mxPoint x="560" y="435"/>
                        </Array>
                    </mxGeometry>
                </mxCell>
                <mxCell id="bDR8WUU64CvsV6LXLhUq-15" value="Store Statistics" style="html=1;dropTarget=0;" parent="1" vertex="1">
                    <mxGeometry x="340" y="190" width="120" height="54.42" as="geometry"/>
                </mxCell>
                <mxCell id="bDR8WUU64CvsV6LXLhUq-16" value="" style="shape=module;jettyWidth=8;jettyHeight=4;fillColor=#99FF99;" parent="bDR8WUU64CvsV6LXLhUq-15" vertex="1">
                    <mxGeometry x="1" width="20" height="20" relative="1" as="geometry">
                        <mxPoint x="-27" y="7" as="offset"/>
                    </mxGeometry>
                </mxCell>
                <mxCell id="bDR8WUU64CvsV6LXLhUq-40" value="" style="shape=requiredInterface;html=1;verticalLabelPosition=bottom;fillColor=#99FF99;align=center;direction=south;rotation=90;" parent="1" vertex="1">
                    <mxGeometry x="643" y="256.42" width="30" height="16" as="geometry"/>
                </mxCell>
                <mxCell id="bDR8WUU64CvsV6LXLhUq-51" value="" style="shape=requiredInterface;html=1;verticalLabelPosition=bottom;fillColor=#99FF99;align=center;direction=west;" parent="1" vertex="1">
                    <mxGeometry x="650" y="420" width="16" height="30" as="geometry"/>
                </mxCell>
                <mxCell id="bDR8WUU64CvsV6LXLhUq-59" value="Query&lt;br&gt;Manager&lt;br&gt;Interface" style="text;html=1;align=center;verticalAlign=middle;resizable=0;points=[];autosize=1;" parent="1" vertex="1">
                    <mxGeometry x="673" y="410" width="60" height="50" as="geometry"/>
                </mxCell>
                <mxCell id="bDR8WUU64CvsV6LXLhUq-60" value="Store&lt;br&gt;Handler&lt;br&gt;Interface" style="text;html=1;align=center;verticalAlign=middle;resizable=0;points=[];autosize=1;" parent="1" vertex="1">
                    <mxGeometry x="673" y="239.42000000000002" width="60" height="50" as="geometry"/>
                </mxCell>
                <mxCell id="GpY1cq3hWmhObwcl4_N0-4" value="" style="ellipse;fillColor=#ffffff;strokeColor=#000000;align=center;" parent="1" vertex="1">
                    <mxGeometry x="150" y="310.00000000000006" width="20" height="20" as="geometry"/>
                </mxCell>
                <mxCell id="GpY1cq3hWmhObwcl4_N0-5" value="Admin&lt;br&gt;Interface" style="text;html=1;align=center;verticalAlign=middle;resizable=0;points=[];autosize=1;" parent="1" vertex="1">
                    <mxGeometry x="80" y="305" width="60" height="30" as="geometry"/>
                </mxCell>
                <mxCell id="13" style="edgeStyle=orthogonalEdgeStyle;rounded=0;orthogonalLoop=1;jettySize=auto;html=1;exitX=0;exitY=0.5;exitDx=0;exitDy=0;" edge="1" parent="1" source="5">
                    <mxGeometry relative="1" as="geometry">
                        <mxPoint x="170.0000000000001" y="320.0000000000001" as="targetPoint"/>
                        <Array as="points">
                            <mxPoint x="250" y="299"/>
                            <mxPoint x="250" y="320"/>
                        </Array>
                    </mxGeometry>
                </mxCell>
                <mxCell id="19" style="edgeStyle=orthogonalEdgeStyle;rounded=0;orthogonalLoop=1;jettySize=auto;html=1;exitX=1;exitY=0.75;exitDx=0;exitDy=0;entryX=1;entryY=0.5;entryDx=0;entryDy=0;entryPerimeter=0;" edge="1" parent="1" source="5" target="bDR8WUU64CvsV6LXLhUq-51">
                    <mxGeometry relative="1" as="geometry">
                        <Array as="points">
                            <mxPoint x="560" y="312"/>
                            <mxPoint x="560" y="435"/>
                        </Array>
                    </mxGeometry>
                </mxCell>
                <mxCell id="21" style="edgeStyle=orthogonalEdgeStyle;rounded=0;orthogonalLoop=1;jettySize=auto;html=1;exitX=1;exitY=0.25;exitDx=0;exitDy=0;entryX=1;entryY=0.5;entryDx=0;entryDy=0;entryPerimeter=0;jumpStyle=arc;" edge="1" parent="1" source="5" target="bDR8WUU64CvsV6LXLhUq-40">
                    <mxGeometry relative="1" as="geometry">
                        <Array as="points">
                            <mxPoint x="540" y="286"/>
                            <mxPoint x="540" y="264"/>
                        </Array>
                    </mxGeometry>
                </mxCell>
                <mxCell id="5" value="Store Details&lt;br&gt;Manager" style="html=1;dropTarget=0;" vertex="1" parent="1">
                    <mxGeometry x="340" y="272.42" width="120" height="52.21" as="geometry"/>
                </mxCell>
                <mxCell id="6" value="" style="shape=module;jettyWidth=8;jettyHeight=4;fillColor=#99FF99;" vertex="1" parent="5">
                    <mxGeometry x="1" width="20" height="20" relative="1" as="geometry">
                        <mxPoint x="-27" y="7" as="offset"/>
                    </mxGeometry>
                </mxCell>
                <mxCell id="15" style="edgeStyle=orthogonalEdgeStyle;rounded=0;orthogonalLoop=1;jettySize=auto;html=1;exitX=0;exitY=0.5;exitDx=0;exitDy=0;" edge="1" parent="1" source="7">
                    <mxGeometry relative="1" as="geometry">
                        <mxPoint x="170.0000000000001" y="320.0000000000001" as="targetPoint"/>
                        <Array as="points">
                            <mxPoint x="250" y="462"/>
                            <mxPoint x="250" y="320"/>
                        </Array>
                    </mxGeometry>
                </mxCell>
                <mxCell id="16" style="edgeStyle=orthogonalEdgeStyle;rounded=0;orthogonalLoop=1;jettySize=auto;html=1;exitX=1;exitY=0.5;exitDx=0;exitDy=0;entryX=1;entryY=0.5;entryDx=0;entryDy=0;entryPerimeter=0;" edge="1" parent="1" source="7" target="bDR8WUU64CvsV6LXLhUq-51">
                    <mxGeometry relative="1" as="geometry">
                        <Array as="points">
                            <mxPoint x="560" y="462"/>
                            <mxPoint x="560" y="435"/>
                        </Array>
                    </mxGeometry>
                </mxCell>
                <mxCell id="7" value="Admin&lt;br&gt;Account&lt;br&gt;Manager" style="html=1;dropTarget=0;" vertex="1" parent="1">
                    <mxGeometry x="340" y="434.41999999999985" width="120" height="54.42" as="geometry"/>
                </mxCell>
                <mxCell id="8" value="" style="shape=module;jettyWidth=8;jettyHeight=4;fillColor=#99FF99;" vertex="1" parent="7">
                    <mxGeometry x="1" width="20" height="20" relative="1" as="geometry">
                        <mxPoint x="-27" y="7" as="offset"/>
                    </mxGeometry>
                </mxCell>
            </root>
        </mxGraphModel>
    </diagram>
</mxfile>